<svg width="36" height="36" viewBox="0 0 36 36" fill="none" xmlns="http://www.w3.org/2000/svg">
<circle cx="18" cy="18" r="18" fill="#F5F4F1"/>
<path d="M17.6883 13.8166C17.8244 14.2353 17.8184 14.6871 17.6715 15.1021L16.9036 17.2708C16.8418 17.4455 16.9439 17.6354 17.1237 17.6803C17.2804 17.7193 17.4411 17.6331 17.4953 17.481L19.6894 11.3282C19.9734 10.5318 20.7277 10 21.5732 10H22.5132C23.4458 10 24.2546 10.6445 24.4628 11.5536L27.4398 24.5536C27.7266 25.8059 26.775 27 25.4902 27H22.6505C22.2275 27 21.8845 26.657 21.8845 26.234C21.8845 25.3582 20.6524 25.1679 20.3881 26.0028L20.2567 26.4181C20.147 26.7646 19.8255 27 19.4622 27H16.6058C16.2424 27 15.9209 26.7646 15.8113 26.4181L15.6798 26.0028C15.4156 25.1679 14.1835 25.3582 14.1835 26.234C14.1835 26.657 13.8405 27 13.4174 27H10.5104C9.22539 27 8.27382 25.8056 8.56095 24.5531L11.5412 11.5531C11.7495 10.6443 12.5582 10 13.4906 10H14.9953C15.8618 10 16.6297 10.558 16.8974 11.3821L17.6883 13.8166Z" fill="url(#paint0_linear_167_18527)"/>
<defs>
<linearGradient id="paint0_linear_167_18527" x1="28" y1="18.5" x2="8" y2="18.5" gradientUnits="userSpaceOnUse">
<stop stop-color="#5B8DEF"/>
<stop offset="1" stop-color="#FFBAD0"/>
</linearGradient>
</defs>
</svg>
