<svg width="32" height="28" viewBox="0 0 32 28" fill="none" xmlns="http://www.w3.org/2000/svg">
<path id="m" d="M15.6242 6.93715C15.7621 7.35845 15.7561 7.81363 15.6072 8.23116L14.2476 12.0426C14.1478 12.3224 14.3115 12.6272 14.5999 12.6985C14.8497 12.7603 15.1058 12.6232 15.1928 12.381L18.9854 1.82382C19.2707 1.02965 20.0237 0.5 20.8676 0.5H24.1801C25.1114 0.5 25.9195 1.14289 26.1289 2.05042L31.4349 25.0504C31.724 26.3036 30.7722 27.5 29.4861 27.5H23.4393C22.7632 27.5 22.2152 26.952 22.2152 26.2759C22.2152 24.8781 20.2495 24.5723 19.8249 25.904L19.6119 26.5719C19.4356 27.1247 18.922 27.5 18.3418 27.5H13.7669C13.1867 27.5 12.6731 27.1247 12.4968 26.5719L12.2839 25.904C11.8592 24.5723 9.89354 24.8781 9.89354 26.2759C9.89354 26.952 9.3455 27.5 8.66946 27.5H2.51453C1.22823 27.5 0.276379 26.3033 0.565828 25.05L5.87758 2.04995C6.08712 1.14265 6.8951 0.5 7.82629 0.5H12.0677C12.9326 0.5 13.6995 1.05594 13.9685 1.87793L15.6242 6.93715Z" fill="url(#paint0_linear_149_5352)"/>
<defs>
<linearGradient id="paint0_linear_149_5352" x1="32" y1="14" x2="0" y2="14" gradientUnits="userSpaceOnUse">
<stop stop-color="#5B8DEF"/>
<stop offset="1" stop-color="#FFBAD0"/>
</linearGradient>
</defs>
</svg>
